# xmcd
#
# Track frame offsets: 
#        150
#        19513
#        31740
#        41482
#        66176
#        76060
#        91620
#        106970
#        121677
#        134206
#        178555
#        193361
#        206509
#        219536
#        231570
#        244781
#        258895
#        272263
#        293736
#        307417
#
# Disc length: 4248 seconds
#
# Revision: 1
# Processed by: cddbd v1.5.2PL0 Copyright (c) Steve Scherf et al.
# Submitted via: ExactAudioCopy v1.0b3
#
DISCID=19109614
DTITLE=Dinah Washington - 100 Hits Legends [CD 5)
DYEAR=2011
DGENRE=Blues
TTITLE0=Manhattan
TTITLE1=Unforgettable
TTITLE2=Love Walked In
TTITLE3=I've Got You Under My Skin
TTITLE4=Squeeze Me
TTITLE5=Willow Weep for Me
TTITLE6=I Believe
TTITLE7=A Cottage for Sale
TTITLE8=Look to the Rainbow
TTITLE9=Lover Come Back to Me
TTITLE10=I Apologize
TTITLE11=Just One More Chance
TTITLE12=I Wanna Be Loved
TTITLE13=Since I Fell for You
TTITLE14=My Song
TTITLE15=Don't Get Around Much Anymore
TTITLE16=Tell Me Why
TTITLE17=If I Had You
TTITLE18=Soft Wind
TTITLE19=The Age of Miracles
EXTD=
EXTT0=
EXTT1=
EXTT2=
EXTT3=
EXTT4=
EXTT5=
EXTT6=
EXTT7=
EXTT8=
EXTT9=
EXTT10=
EXTT11=
EXTT12=
EXTT13=
EXTT14=
EXTT15=
EXTT16=
EXTT17=
EXTT18=
EXTT19=
PLAYORDER=
